<svg xmlns="http://www.w3.org/2000/svg" width="21" height="21" viewBox="0 0 21 21">
  <g id="Group_9043" data-name="Group 9043" transform="translate(-357 -660)">
    <circle id="Ellipse_590" data-name="Ellipse 590" cx="10.5" cy="10.5" r="10.5" transform="translate(357 660)" fill="#d12f2f" opacity="0.13"/>
    <g id="Group_9018" data-name="Group 9018" transform="translate(359.646 655.794)">
      <g id="Group_9019" data-name="Group 9019" transform="translate(0 0)">
        <path id="ic_cricket" d="M3.177,12.037l.38.373-.436.429a6.328,6.328,0,0,0,.591.781L13.622,3.7a7.687,7.687,0,0,0-.774-.584l-.436.429-.373-.373.338-.338a7.039,7.039,0,0,0-9.531,9.538ZM11.053,4.16l.373.373-.978.985-.373-.373ZM9.089,6.131l.366.373-.978.985L8.1,7.116ZM7.118,8.1l.373.373-.985.978L6.133,9.08ZM5.147,10.066l.373.38-.985.985-.373-.373Zm.084,4.892.436-.429.373.373-.338.338A7.039,7.039,0,0,0,15.234,5.7L14.9,6.04l-.38-.373.436-.429a6.336,6.336,0,0,0-.591-.781L4.458,14.373A7.68,7.68,0,0,0,5.232,14.958Zm8.313-8.306.373.373-.985.985-.373-.38ZM11.574,8.623,11.947,9l-.985.978L10.588,9.6ZM9.6,10.587l.373.373L9,11.945l-.38-.373ZM7.632,12.557l.373.373-.985.985-.373-.373Z" transform="translate(-1.186 5.668)" fill="#d12f2f"/>
      </g>
    </g>
  </g>
</svg>
