<svg xmlns="http://www.w3.org/2000/svg" width="23.448" height="23.489" viewBox="0 0 23.448 23.489">
  <g id="Group_9042" data-name="Group 9042" transform="translate(-356.271 -658.452)">
    <circle id="Ellipse_590" data-name="Ellipse 590" cx="10.5" cy="10.5" r="10.5" transform="translate(357 660)" fill="#d12f2f" opacity="0.13"/>
    <g id="Group_9018" data-name="Group 9018" transform="translate(356.773 659)">
      <g id="Group_9019" data-name="Group 9019" transform="translate(0 0)">
        <path id="Path_76749" data-name="Path 76749" d="M35.021,27.164c.427,0,.855-.009,1.282,0a.478.478,0,0,0,.385-.163q2.227-2.236,4.461-4.464A1.482,1.482,0,1,1,43.283,24.6c-.679.693-1.37,1.373-2.055,2.059-.813.814-1.624,1.63-2.443,2.437a.508.508,0,0,0-.164.409c.015.838.012,1.676.029,2.514a.809.809,0,0,1-.258.634q-5.705,5.695-11.4,11.4a1.4,1.4,0,0,1-1.441.383,5.038,5.038,0,0,1-1.989-1.145,7.5,7.5,0,0,1-1.977-2.428A3.587,3.587,0,0,1,21.313,40a1.253,1.253,0,0,1,.4-1.181q3.231-3.218,6.452-6.448,2.484-2.484,4.965-4.971a.812.812,0,0,1,.656-.261c.41.016.821,0,1.232,0v.023" transform="translate(-21.288 -22.052)" fill="#d12f2f" stroke="#fff" stroke-width="1"/>
      </g>
    </g>
  </g>
</svg>
