<svg xmlns="http://www.w3.org/2000/svg" xmlns:xlink="http://www.w3.org/1999/xlink" width="21.258" height="21" viewBox="0 0 21.258 21">
  <defs>
    <clipPath id="clip-path">
      <rect id="Rectangle_3614" data-name="Rectangle 3614" width="20.526" height="20.946" fill="#d12f2f"/>
    </clipPath>
  </defs>
  <g id="Group_9047" data-name="Group 9047" transform="translate(-357 -659.7)">
    <circle id="Ellipse_590" data-name="Ellipse 590" cx="10.5" cy="10.5" r="10.5" transform="translate(357 659.7)" fill="#d12f2f" opacity="0.13"/>
    <g id="Group_9018" data-name="Group 9018" transform="translate(356.772 660.506)">
      <g id="Group_9046" data-name="Group 9046" transform="translate(0.959 -0.807)">
        <g id="Group_9045" data-name="Group 9045" clip-path="url(#clip-path)">
          <path id="Path_76764" data-name="Path 76764" d="M74.3,20.946a1,1,0,0,1-.724-.8q-1.618-6-3.254-12a.945.945,0,0,1,.158-.867c.289-.388.564-.786.851-1.175a.326.326,0,0,0,.063-.316Q70.746,3.521,70.11,1.25c-.033-.12-.062-.2-.22-.2a.3.3,0,0,1-.295-.288.31.31,0,0,1,.224-.368c.47-.137.943-.266,1.419-.384a.311.311,0,0,1,.377.208.319.319,0,0,1-.113.4A1.554,1.554,0,0,1,71.368.7q.2.779.4,1.558c.273,1.054.55,2.107.819,3.162a.375.375,0,0,0,.244.289c.434.178.859.379,1.292.561a.98.98,0,0,1,.6.7q1.637,6.05,3.285,12.1a.847.847,0,0,1-.463,1.059,6.512,6.512,0,0,1-2.559.785,1.143,1.143,0,0,0-.157.036Zm.6-2.517a6.416,6.416,0,0,0-.1-.85c-.256-1.043-.534-2.081-.807-3.121-.167-.638-.342-1.274-.512-1.912-.042-.157-.138-.241-.3-.192s-.175.173-.137.314l.027.1c.32,1.2.643,2.391.959,3.587.123.467.258.933.341,1.407a4.225,4.225,0,0,1-.189,2.134c-.052.15-.058.295.122.352s.262-.06.311-.212c.006-.019.01-.04.017-.059a5.33,5.33,0,0,0,.265-1.548M73.318,7.645c-.247.009-.318.145-.259.367q.69,2.551,1.381,5.1.155.571.31,1.142c.041.15.124.255.291.21s.187-.179.149-.328c-.007-.026-.017-.052-.024-.078L74.028,9.865c-.18-.663-.356-1.327-.545-1.988a.767.767,0,0,0-.165-.232m-.1,4.015c-.027-.109-.041-.169-.057-.227q-.34-1.261-.682-2.521c-.066-.243-.13-.486-.2-.729-.042-.152-.133-.245-.3-.2s-.172.175-.14.314c.006.027.014.053.021.079l.695,2.56c.066.243.128.487.2.728a.2.2,0,0,0,.265.158c.08-.028.139-.116.195-.165m4.274,7.6a2,2,0,0,0-.2-.238,4.463,4.463,0,0,1-1.228-1.756c-.1-.272-.174-.557-.257-.838-.042-.142-.121-.235-.279-.2-.173.039-.2.169-.16.318a5.2,5.2,0,0,0,1.142,2.319,5.64,5.64,0,0,0,.57.554.333.333,0,0,0,.261.025c.054-.014.087-.106.147-.186" transform="translate(-57.526 0)" fill="#d12f2f"/>
          <path id="Path_76765" data-name="Path 76765" d="M2.167,105.532a2.881,2.881,0,0,1-1.27-.565,2.429,2.429,0,0,1-.767-2.64l3.087,3.084-.436.122Z" transform="translate(0 -84.586)" fill="#d12f2f"/>
          <path id="Path_76766" data-name="Path 76766" d="M31.643,16c.015.2.041.386.041.567q0,7.229,0,14.459a4.363,4.363,0,0,1-.366,1.727,1.671,1.671,0,0,1-.314.373,1.6,1.6,0,0,1-.321-.364,4.156,4.156,0,0,1-.368-1.665q-.008-7.321,0-14.643a4.169,4.169,0,0,1,.048-.449c-.222,0-.466-.082-.641.157a.2.2,0,0,1-.121.072c-.446.054-.892.18-1.3-.176-.111-.1-.342-.058-.5-.079.015.237.039.439.039.641q0,7.209,0,14.418a4.255,4.255,0,0,1-.39,1.762,1.419,1.419,0,0,1-.287.319,3.282,3.282,0,0,1-.31-.322.356.356,0,0,1,.007-.442,2.9,2.9,0,0,0-.259-3.326.587.587,0,0,1-.127-.343q-.01-6.1-.007-12.209a.8.8,0,0,1,.293-.7.194.194,0,0,0,.057-.117c.042-.25.142-.343.393-.346.293,0,.587.007.879-.006a.824.824,0,0,0,.264-.1,1.687,1.687,0,0,1,.4-.174,2.352,2.352,0,0,1,.632,0,.768.768,0,0,1,.38.167.423.423,0,0,0,.3.118c.614,0,1.227,0,1.841-.007a.777.777,0,0,0,.282-.108,1.268,1.268,0,0,0,.113-.086,1.5,1.5,0,0,1,1.367.133.3.3,0,0,0,.179.063c.2.008.394,0,.609,0l.321,1.141c.156.55.317,1.1.461,1.652a.41.41,0,0,1-.051.292c-.17.263-.366.508-.542.768s-.334.523-.49.768c0-1.277-.006-2.592.006-3.925-.169.008-.4-.088-.59.145a.416.416,0,0,1-.272.123,6.067,6.067,0,0,1-.755,0,.383.383,0,0,1-.256-.11c-.183-.231-.423-.16-.647-.165" transform="translate(-21.877 -12.403)" fill="#d12f2f"/>
          <path id="Path_76767" data-name="Path 76767" d="M70.845,46.311c.029.086.05.141.066.2q.627,2.3,1.252,4.607a1.251,1.251,0,0,1,.04.322c0,1.839.007,3.679,0,5.518a4.174,4.174,0,0,1-.392,1.739c-.057.123-.192.21-.292.313a1.407,1.407,0,0,1-.29-.315,4,4,0,0,1-.387-1.679c-.009-3.542,0-7.085,0-10.627,0-.013,0-.026.01-.075" transform="translate(-58.553 -38.282)" fill="#d12f2f"/>
          <path id="Path_76768" data-name="Path 76768" d="M2.1,95.558a2.354,2.354,0,0,1,.734-.759.2.2,0,0,1,.183.026q1.6,1.59,3.192,3.192a.205.205,0,0,1,.021.2c-.216.233-.444.455-.677.671a.172.172,0,0,1-.167-.01Q3.747,97.241,2.113,95.6s0-.013-.009-.038" transform="translate(-1.739 -78.353)" fill="#d12f2f"/>
          <path id="Path_76769" data-name="Path 76769" d="M12.861,95.66l-3.09-3.089a2.359,2.359,0,0,1,2.4.453,2.425,2.425,0,0,1,.694,2.636" transform="translate(-8.077 -76.392)" fill="#d12f2f"/>
        </g>
      </g>
    </g>
  </g>
</svg>
