<svg xmlns="http://www.w3.org/2000/svg" xmlns:xlink="http://www.w3.org/1999/xlink" width="21" height="21" viewBox="0 0 21 21">
  <defs>
    <clipPath id="clip-path">
      <rect id="Rectangle_3613" data-name="Rectangle 3613" width="15.561" height="19.85" transform="translate(0 0)" fill="none"/>
    </clipPath>
  </defs>
  <g id="Group_9044" data-name="Group 9044" transform="translate(-357 -660)">
    <circle id="Ellipse_590" data-name="Ellipse 590" cx="10.5" cy="10.5" r="10.5" transform="translate(357 660)" fill="#d12f2f" opacity="0.13"/>
    <g id="Group_9018" data-name="Group 9018" transform="translate(357.719 656.893)">
      <g id="Group_9037" data-name="Group 9037" transform="translate(2 3.682)">
        <g id="Group_9036" data-name="Group 9036" transform="translate(0 0)" clip-path="url(#clip-path)">
          <path id="Path_76750" data-name="Path 76750" d="M0,7.913a.461.461,0,0,0,.03-.066,1.063,1.063,0,0,1,2.092.16,19.6,19.6,0,0,0,.7,3.418.711.711,0,0,1,.028.223A5.5,5.5,0,0,0,5.137,16.5,5.645,5.645,0,0,0,14,13.218,5.582,5.582,0,0,0,13.5,9.309a.67.67,0,0,1-.065-.287c-.014-.679-.02-1.358-.027-2.037a1.059,1.059,0,0,1,.938-1.074,1.041,1.041,0,0,1,1.144.808,5.356,5.356,0,0,1,.069.938,21.4,21.4,0,0,1-.691,6.064,10.982,10.982,0,0,1-1.824,3.862,5.34,5.34,0,0,1-2.312,1.84,5.174,5.174,0,0,1-2.375.284,7.1,7.1,0,0,1-3.962-1.646,9.642,9.642,0,0,1-2.169-2.64A16.96,16.96,0,0,1,.371,10.414C.228,9.742.14,9.058.026,8.379.021,8.345.009,8.312,0,8.278V7.913" transform="translate(0 -3.114)" fill="#d12f2f"/>
          <path id="Path_76752" data-name="Path 76752" d="M10.581,33.061,9.335,34.933c-.1.148-.2.293-.294.443a.406.406,0,0,1-.4.2A6.057,6.057,0,0,1,6.8,35.155a10.2,10.2,0,0,1-2.663-1.37A4.006,4.006,0,0,1,2.8,32.129a.628.628,0,0,1,.08-.676c.389-.531.755-1.078,1.143-1.638a8.079,8.079,0,0,0,6.561,3.246" transform="translate(-1.442 -15.727)" fill="#d12f2f"/>
          <path id="Path_76755" data-name="Path 76755" d="M10,4.692c0,.378,0,.712,0,1.045,0,.106-.076.1-.141.122A5.608,5.608,0,0,0,7.134,7.547,5.538,5.538,0,0,0,6.113,9.19c-.015.037-.03.075-.047.112,0,.008-.015.011-.056.039-.089-.522-.177-1.026-.26-1.532-.043-.26-.061-.525-.12-.78a4.249,4.249,0,0,0-.207-.551A6.468,6.468,0,0,0,10,4.692" transform="translate(-2.86 -2.475)" fill="#d12f2f"/>
          <path id="Path_76756" data-name="Path 76756" d="M18.417.466a1.787,1.787,0,0,0-.565,1.355c.005.268.026.537.033.805.006.192,0,.384,0,.572H16.543c0-.018-.006-.043-.007-.067q-.03-1-.06-2.006A1.051,1.051,0,0,1,17.431.007a1.031,1.031,0,0,1,.985.459" transform="translate(-8.691 0)" fill="#d12f2f"/>
          <path id="Path_76757" data-name="Path 76757" d="M26.617,4.286c-.114.086-.23.16-.33.252A1.731,1.731,0,0,0,25.7,5.917c.009.319.022.638.032.958,0,.049,0,.1,0,.157-.1-.093-.186-.176-.275-.253-.231-.2-.465-.391-.693-.591a.237.237,0,0,1-.089-.14c-.018-.43-.036-.861-.037-1.292a1.04,1.04,0,0,1,.774-.994,1.058,1.058,0,0,1,1.174.461c.013.02.022.043.033.064" transform="translate(-12.995 -1.965)" fill="#d12f2f"/>
          <path id="Path_76758" data-name="Path 76758" d="M22.854,2.023a6.085,6.085,0,0,0-.528.5,1.7,1.7,0,0,0-.377,1.2c.011.258,0,.516,0,.774L20.9,4.118c0-.386,0-.8,0-1.205,0-.116-.012-.232-.015-.349a1.055,1.055,0,0,1,.8-1.05,1.032,1.032,0,0,1,1.165.509" transform="translate(-11.018 -0.782)" fill="#d12f2f"/>
          <g id="Group_9038" data-name="Group 9038" transform="translate(3.889 4.218)">
            <g id="Group_9019" data-name="Group 9019" transform="translate(0)">
              <path id="ic_cricket" d="M2.788,8.71l.254.249-.292.287a4.231,4.231,0,0,0,.4.522L9.772,3.138a5.14,5.14,0,0,0-.518-.391l-.292.287-.249-.249.226-.226A4.706,4.706,0,0,0,2.567,8.936ZM8.055,3.443l.249.249-.654.659L7.4,4.1ZM6.741,4.761l.245.249-.654.659L6.083,5.42ZM5.424,6.079l.249.249-.659.654-.249-.249ZM4.106,7.392l.249.254L3.7,8.305l-.249-.249Zm.056,3.271.292-.287.249.249-.226.226A4.706,4.706,0,0,0,10.85,4.474l-.221.226-.254-.249.292-.287a4.237,4.237,0,0,0-.4-.522L3.645,10.273A5.135,5.135,0,0,0,4.162,10.663ZM9.721,5.11l.249.249-.659.659-.249-.254ZM8.4,6.427l.249.249-.659.654-.249-.249ZM7.085,7.74l.249.249-.654.659L6.426,8.4ZM5.767,9.058l.249.249-.659.659-.249-.249Z" transform="translate(-2.004 -1.997)" fill="#d12f2f"/>
            </g>
          </g>
        </g>
      </g>
    </g>
  </g>
</svg>
