<svg xmlns="http://www.w3.org/2000/svg" width="22.393" height="22.389" viewBox="0 0 22.393 22.389">
  <g id="Group_9040" data-name="Group 9040" transform="translate(0.25 0.25)">
    <g id="Group_9041" data-name="Group 9041" transform="translate(0 0)">
      <path id="Path_76761" data-name="Path 76761" d="M21.893,11.584c-.056.422-.092.847-.173,1.264A10.781,10.781,0,0,1,16.082,20.6a10.148,10.148,0,0,1-5.593,1.267,10.731,10.731,0,0,1-9.2-5.791A10.022,10.022,0,0,1,.021,10.487,10.743,10.743,0,0,1,5.828,1.279,10.134,10.134,0,0,1,10.142.035,1.174,1.174,0,0,0,10.307,0H11.59a1.14,1.14,0,0,0,.165.035,10.114,10.114,0,0,1,3.817.994,10.8,10.8,0,0,1,6.149,8.01c.081.416.116.842.173,1.263ZM10.957.992A9.951,9.951,0,1,0,20.9,10.951,9.965,9.965,0,0,0,10.957.992" transform="translate(-0.001 0)" fill="#d12f2f" stroke="#d12f2f" stroke-linecap="round" stroke-width="0.5"/>
      <path id="Path_76762" data-name="Path 76762" d="M42.077,46.268c-.051.2-.092.377-.146.551a.175.175,0,0,1-.1.092,12.4,12.4,0,0,1-1.354.448,2.333,2.333,0,0,1-1.91-.265,1.3,1.3,0,0,1-.589-1.225A14.334,14.334,0,0,1,38.62,43.2a9.676,9.676,0,0,0,.267-1.334c.051-.5-.213-.744-.725-.71a8.686,8.686,0,0,0-.926.159c.044-.175.085-.359.139-.541a.177.177,0,0,1,.1-.1,5.787,5.787,0,0,1,2.291-.525,1.481,1.481,0,0,1,1.447,1.078,3.091,3.091,0,0,1-.046,1.2c-.2.872-.477,1.726-.706,2.592a3.772,3.772,0,0,0-.107.758.531.531,0,0,0,.5.623,2.062,2.062,0,0,0,1.112-.11,1.126,1.126,0,0,1,.111-.025" transform="translate(-28.761 -31.008)" fill="#d12f2f" stroke="#d12f2f" stroke-linecap="round" stroke-width="0.5"/>
      <path id="Path_76763" data-name="Path 76763" d="M48.114,24.043a1.331,1.331,0,0,1,1.414,1.3,1.282,1.282,0,0,1-1.012,1.193,1.462,1.462,0,0,1-1.66-.686,1.273,1.273,0,0,1,1.107-1.8c.056-.005.113-.007.15-.009" transform="translate(-36.094 -18.571)" fill="#d12f2f" stroke="#d12f2f" stroke-linecap="round" stroke-width="0.5"/>
    </g>
  </g>
</svg>
